<mxfile host="app.diagrams.net" modified="2023-10-17T12:00:50.357Z" agent="Mozilla/5.0 (Macintosh; Intel Mac OS X 10_15_7) AppleWebKit/537.36 (KHTML, like Gecko) Chrome/118.0.0.0 Safari/537.36" etag="DF-CmL2sUPltfUc6QnuR" version="22.0.4" type="github">
  <diagram name="Page-1" id="e56a1550-8fbb-45ad-956c-1786394a9013">
    <mxGraphModel dx="2322" dy="1691" grid="1" gridSize="10" guides="1" tooltips="1" connect="1" arrows="1" fold="1" page="1" pageScale="1" pageWidth="1100" pageHeight="850" background="none" math="0" shadow="0">
      <root>
        <mxCell id="0" />
        <mxCell id="1" parent="0" />
        <mxCell id="yuesj6V39DcN7nB38oiK-129" value="" style="shape=ext;double=1;whiteSpace=wrap;html=1;aspect=fixed;" vertex="1" parent="1">
          <mxGeometry x="-190" y="20" width="590" height="590" as="geometry" />
        </mxCell>
        <mxCell id="yuesj6V39DcN7nB38oiK-126" value="" style="shape=ext;double=1;whiteSpace=wrap;html=1;aspect=fixed;" vertex="1" parent="1">
          <mxGeometry x="1260" y="25" width="540" height="540" as="geometry" />
        </mxCell>
        <mxCell id="yuesj6V39DcN7nB38oiK-125" value="" style="shape=ext;double=1;whiteSpace=wrap;html=1;aspect=fixed;" vertex="1" parent="1">
          <mxGeometry x="440" y="20" width="770" height="770" as="geometry" />
        </mxCell>
        <mxCell id="2e49270ec7c68f3f-1" value="Service registry" style="swimlane;html=1;fontStyle=0;childLayout=stackLayout;horizontal=1;startSize=26;fillColor=#e0e0e0;horizontalStack=0;resizeParent=1;resizeLast=0;collapsible=1;marginBottom=0;swimlaneFillColor=#ffffff;align=center;rounded=0;shadow=0;comic=0;labelBackgroundColor=none;strokeWidth=1;fontFamily=Verdana;fontSize=14" parent="1" vertex="1">
          <mxGeometry x="-120" y="210" width="330" height="120" as="geometry" />
        </mxCell>
        <mxCell id="yuesj6V39DcN7nB38oiK-155" value="&amp;nbsp; &amp;nbsp; &amp;nbsp; &amp;nbsp; &amp;nbsp; &amp;nbsp; &amp;nbsp; &amp;nbsp; &amp;nbsp; &amp;nbsp; &amp;nbsp; &amp;nbsp; &amp;nbsp; &amp;nbsp; &amp;nbsp; &amp;nbsp; &amp;nbsp;Value" style="shape=partialRectangle;top=0;left=0;right=0;bottom=1;html=1;align=center;verticalAlign=middle;fillColor=none;spacingLeft=60;spacingRight=4;whiteSpace=wrap;overflow=hidden;rotatable=0;points=[[0,0.5],[1,0.5]];portConstraint=eastwest;dropTarget=0;fontStyle=1;labelPosition=center;verticalLabelPosition=middle;" vertex="1" parent="2e49270ec7c68f3f-1">
          <mxGeometry y="26" width="330" height="30" as="geometry" />
        </mxCell>
        <mxCell id="yuesj6V39DcN7nB38oiK-156" value="Key" style="shape=partialRectangle;fontStyle=1;top=0;left=0;bottom=0;html=1;fillColor=none;align=center;verticalAlign=middle;spacingLeft=4;spacingRight=4;whiteSpace=wrap;overflow=hidden;rotatable=0;points=[];portConstraint=eastwest;part=1;" vertex="1" connectable="0" parent="yuesj6V39DcN7nB38oiK-155">
          <mxGeometry width="160" height="30" as="geometry" />
        </mxCell>
        <mxCell id="2e49270ec7c68f3f-2" value="&amp;nbsp; &amp;nbsp; &amp;nbsp; &amp;nbsp; &amp;nbsp; &amp;nbsp; &amp;nbsp; &amp;nbsp; &amp;nbsp; &amp;nbsp; &amp;nbsp; &amp;nbsp; &amp;nbsp; &amp;nbsp; &amp;nbsp; UID" style="shape=partialRectangle;top=0;left=0;right=0;bottom=0;html=1;align=center;verticalAlign=middle;fillColor=none;spacingLeft=60;spacingRight=4;whiteSpace=wrap;overflow=hidden;rotatable=0;points=[[0,0.5],[1,0.5]];portConstraint=eastwest;dropTarget=0;fontStyle=1;labelPosition=center;verticalLabelPosition=middle;" parent="2e49270ec7c68f3f-1" vertex="1">
          <mxGeometry y="56" width="330" height="30" as="geometry" />
        </mxCell>
        <mxCell id="2e49270ec7c68f3f-3" value="ID" style="shape=partialRectangle;fontStyle=1;top=0;left=0;bottom=0;html=1;fillColor=none;align=center;verticalAlign=middle;spacingLeft=4;spacingRight=4;whiteSpace=wrap;overflow=hidden;rotatable=0;points=[];portConstraint=eastwest;part=1;" parent="2e49270ec7c68f3f-2" vertex="1" connectable="0">
          <mxGeometry width="160" height="30" as="geometry" />
        </mxCell>
        <mxCell id="2e49270ec7c68f3f-4" value="&amp;nbsp; &amp;nbsp; &amp;nbsp; &amp;nbsp; &amp;nbsp; &amp;nbsp; &amp;nbsp; &amp;nbsp; &amp;nbsp; &amp;nbsp; &amp;nbsp; &amp;nbsp; &amp;nbsp; &amp;nbsp; &amp;nbsp; &amp;nbsp; &amp;nbsp; &amp;nbsp; Service MetaData&amp;nbsp;" style="shape=partialRectangle;top=0;left=0;right=0;bottom=0;html=1;align=center;verticalAlign=middle;fillColor=none;spacingLeft=60;spacingRight=4;whiteSpace=wrap;overflow=hidden;rotatable=0;points=[[0,0.5],[1,0.5]];portConstraint=eastwest;dropTarget=0;fontStyle=1;" parent="2e49270ec7c68f3f-1" vertex="1">
          <mxGeometry y="86" width="330" height="30" as="geometry" />
        </mxCell>
        <mxCell id="2e49270ec7c68f3f-5" value="Dynamic Object Field" style="shape=partialRectangle;fontStyle=1;top=0;left=0;bottom=0;html=1;fillColor=none;align=center;verticalAlign=middle;spacingLeft=4;spacingRight=4;whiteSpace=wrap;overflow=hidden;rotatable=0;points=[];portConstraint=eastwest;part=1;" parent="2e49270ec7c68f3f-4" vertex="1" connectable="0">
          <mxGeometry width="160" height="30" as="geometry" />
        </mxCell>
        <mxCell id="yuesj6V39DcN7nB38oiK-33" value="Service Metadata" style="swimlane;html=1;fontStyle=0;childLayout=stackLayout;horizontal=1;startSize=26;fillColor=#e0e0e0;horizontalStack=0;resizeParent=1;resizeLast=0;collapsible=1;marginBottom=0;swimlaneFillColor=#ffffff;align=center;rounded=0;shadow=0;comic=0;labelBackgroundColor=none;strokeWidth=1;fontFamily=Verdana;fontSize=14" vertex="1" parent="1">
          <mxGeometry x="-50" y="400" width="310" height="142" as="geometry" />
        </mxCell>
        <mxCell id="yuesj6V39DcN7nB38oiK-152" value="&amp;nbsp; &amp;nbsp; &amp;nbsp; &amp;nbsp; &amp;nbsp; &amp;nbsp; &amp;nbsp; &amp;nbsp; &amp;nbsp; &amp;nbsp; &amp;nbsp; &amp;nbsp; &amp;nbsp; &amp;nbsp; &amp;nbsp; &amp;nbsp; &amp;nbsp;Value" style="shape=partialRectangle;top=0;left=0;right=0;bottom=0;html=1;align=center;verticalAlign=middle;fillColor=none;spacingLeft=60;spacingRight=4;whiteSpace=wrap;overflow=hidden;rotatable=0;points=[[0,0.5],[1,0.5]];portConstraint=eastwest;dropTarget=0;fontStyle=1;labelPosition=center;verticalLabelPosition=middle;" vertex="1" parent="yuesj6V39DcN7nB38oiK-33">
          <mxGeometry y="26" width="310" height="30" as="geometry" />
        </mxCell>
        <mxCell id="yuesj6V39DcN7nB38oiK-153" value="Key" style="shape=partialRectangle;fontStyle=1;top=0;left=0;bottom=0;html=1;fillColor=none;align=center;verticalAlign=middle;spacingLeft=4;spacingRight=4;whiteSpace=wrap;overflow=hidden;rotatable=0;points=[];portConstraint=eastwest;part=1;" vertex="1" connectable="0" parent="yuesj6V39DcN7nB38oiK-152">
          <mxGeometry width="160" height="30" as="geometry" />
        </mxCell>
        <mxCell id="yuesj6V39DcN7nB38oiK-34" value="&amp;nbsp; &amp;nbsp; &amp;nbsp; &amp;nbsp; &amp;nbsp; &amp;nbsp; &amp;nbsp; &amp;nbsp; &amp;nbsp; &amp;nbsp; &amp;nbsp; &amp;nbsp; &amp;nbsp; &amp;nbsp; &amp;nbsp; &amp;nbsp; &amp;nbsp;UID" style="shape=partialRectangle;top=1;left=0;right=0;bottom=0;html=1;align=center;verticalAlign=middle;fillColor=none;spacingLeft=60;spacingRight=4;whiteSpace=wrap;overflow=hidden;rotatable=0;points=[[0,0.5],[1,0.5]];portConstraint=eastwest;dropTarget=0;fontStyle=1;labelPosition=center;verticalLabelPosition=middle;" vertex="1" parent="yuesj6V39DcN7nB38oiK-33">
          <mxGeometry y="56" width="310" height="30" as="geometry" />
        </mxCell>
        <mxCell id="yuesj6V39DcN7nB38oiK-35" value="ID" style="shape=partialRectangle;fontStyle=1;top=0;left=0;bottom=0;html=1;fillColor=none;align=center;verticalAlign=middle;spacingLeft=4;spacingRight=4;whiteSpace=wrap;overflow=hidden;rotatable=0;points=[];portConstraint=eastwest;part=1;" vertex="1" connectable="0" parent="yuesj6V39DcN7nB38oiK-34">
          <mxGeometry width="160" height="30" as="geometry" />
        </mxCell>
        <mxCell id="yuesj6V39DcN7nB38oiK-36" value="&amp;nbsp; &amp;nbsp; &amp;nbsp; &amp;nbsp; &amp;nbsp; &amp;nbsp; &amp;nbsp; &amp;nbsp; &amp;nbsp; &amp;nbsp; &amp;nbsp; &amp;nbsp; &amp;nbsp; &amp;nbsp; &amp;nbsp; &amp;nbsp; &amp;nbsp; &amp;nbsp; &amp;nbsp; &amp;nbsp; &amp;nbsp; &amp;nbsp; &amp;nbsp; address" style="shape=partialRectangle;top=0;left=0;right=0;bottom=0;html=1;align=left;verticalAlign=middle;fillColor=none;spacingLeft=60;spacingRight=4;whiteSpace=wrap;overflow=hidden;rotatable=0;points=[[0,0.5],[1,0.5]];portConstraint=eastwest;dropTarget=0;fontStyle=1;" vertex="1" parent="yuesj6V39DcN7nB38oiK-33">
          <mxGeometry y="86" width="310" height="30" as="geometry" />
        </mxCell>
        <mxCell id="yuesj6V39DcN7nB38oiK-37" value="Owner" style="shape=partialRectangle;fontStyle=1;top=0;left=0;bottom=0;html=1;fillColor=none;align=center;verticalAlign=middle;spacingLeft=4;spacingRight=4;whiteSpace=wrap;overflow=hidden;rotatable=0;points=[];portConstraint=eastwest;part=1;" vertex="1" connectable="0" parent="yuesj6V39DcN7nB38oiK-36">
          <mxGeometry width="160" height="30" as="geometry" />
        </mxCell>
        <mxCell id="yuesj6V39DcN7nB38oiK-38" value="&amp;nbsp; &amp;nbsp; &amp;nbsp; &amp;nbsp; &amp;nbsp; &amp;nbsp; &amp;nbsp; &amp;nbsp; &amp;nbsp; &amp;nbsp; &amp;nbsp; &amp;nbsp; &amp;nbsp; &amp;nbsp; &amp;nbsp; &amp;nbsp; &amp;nbsp; &amp;nbsp; &amp;nbsp; &amp;nbsp; &amp;nbsp; &amp;nbsp; &amp;nbsp; &lt;b&gt;address&lt;/b&gt;" style="shape=partialRectangle;top=0;left=0;right=0;bottom=0;html=1;align=left;verticalAlign=top;fillColor=none;spacingLeft=60;spacingRight=4;whiteSpace=wrap;overflow=hidden;rotatable=0;points=[[0,0.5],[1,0.5]];portConstraint=eastwest;dropTarget=0;" vertex="1" parent="yuesj6V39DcN7nB38oiK-33">
          <mxGeometry y="116" width="310" height="26" as="geometry" />
        </mxCell>
        <mxCell id="yuesj6V39DcN7nB38oiK-39" value="&lt;b&gt;Service Object Address&lt;/b&gt;" style="shape=partialRectangle;top=0;left=0;bottom=0;html=1;fillColor=none;align=center;verticalAlign=top;spacingLeft=4;spacingRight=4;whiteSpace=wrap;overflow=hidden;rotatable=0;points=[];portConstraint=eastwest;part=1;" vertex="1" connectable="0" parent="yuesj6V39DcN7nB38oiK-38">
          <mxGeometry width="160" height="26" as="geometry" />
        </mxCell>
        <mxCell id="yuesj6V39DcN7nB38oiK-40" value="Service Object" style="swimlane;html=1;fontStyle=0;childLayout=stackLayout;horizontal=1;startSize=26;fillColor=#e0e0e0;horizontalStack=0;resizeParent=1;resizeLast=0;collapsible=1;marginBottom=0;swimlaneFillColor=#ffffff;align=center;rounded=0;shadow=0;comic=0;labelBackgroundColor=none;strokeWidth=1;fontFamily=Verdana;fontSize=14" vertex="1" parent="1">
          <mxGeometry x="480" y="110" width="420" height="380" as="geometry" />
        </mxCell>
        <mxCell id="yuesj6V39DcN7nB38oiK-164" value="&amp;nbsp; &amp;nbsp; &amp;nbsp; &amp;nbsp; &amp;nbsp; &amp;nbsp; &amp;nbsp; &amp;nbsp; &amp;nbsp; &amp;nbsp; &amp;nbsp; &amp;nbsp; &amp;nbsp; &amp;nbsp; &amp;nbsp; &amp;nbsp; &amp;nbsp; &amp;nbsp; Value" style="shape=partialRectangle;top=0;left=0;right=0;bottom=1;html=1;align=left;verticalAlign=middle;fillColor=none;spacingLeft=60;spacingRight=4;whiteSpace=wrap;overflow=hidden;rotatable=0;points=[[0,0.5],[1,0.5]];portConstraint=eastwest;dropTarget=0;fontStyle=1;labelPosition=center;verticalLabelPosition=middle;" vertex="1" parent="yuesj6V39DcN7nB38oiK-40">
          <mxGeometry y="26" width="420" height="30" as="geometry" />
        </mxCell>
        <mxCell id="yuesj6V39DcN7nB38oiK-165" value="Key" style="shape=partialRectangle;fontStyle=1;top=0;left=0;bottom=0;html=1;fillColor=none;align=center;verticalAlign=middle;spacingLeft=4;spacingRight=4;whiteSpace=wrap;overflow=hidden;rotatable=0;points=[];portConstraint=eastwest;part=1;" vertex="1" connectable="0" parent="yuesj6V39DcN7nB38oiK-164">
          <mxGeometry width="140" height="30" as="geometry" />
        </mxCell>
        <mxCell id="yuesj6V39DcN7nB38oiK-41" value="&amp;nbsp; &amp;nbsp; &amp;nbsp; &amp;nbsp; &amp;nbsp; &amp;nbsp; &amp;nbsp; &amp;nbsp; &amp;nbsp; &amp;nbsp; &amp;nbsp; &amp;nbsp; &amp;nbsp; &amp;nbsp; &amp;nbsp; &amp;nbsp; &amp;nbsp; &amp;nbsp; &amp;nbsp;UID" style="shape=partialRectangle;top=0;left=0;right=0;bottom=0;html=1;align=left;verticalAlign=middle;fillColor=none;spacingLeft=60;spacingRight=4;whiteSpace=wrap;overflow=hidden;rotatable=0;points=[[0,0.5],[1,0.5]];portConstraint=eastwest;dropTarget=0;fontStyle=1;labelPosition=center;verticalLabelPosition=middle;" vertex="1" parent="yuesj6V39DcN7nB38oiK-40">
          <mxGeometry y="56" width="420" height="30" as="geometry" />
        </mxCell>
        <mxCell id="yuesj6V39DcN7nB38oiK-42" value="ID" style="shape=partialRectangle;fontStyle=1;top=0;left=0;bottom=0;html=1;fillColor=none;align=center;verticalAlign=middle;spacingLeft=4;spacingRight=4;whiteSpace=wrap;overflow=hidden;rotatable=0;points=[];portConstraint=eastwest;part=1;" vertex="1" connectable="0" parent="yuesj6V39DcN7nB38oiK-41">
          <mxGeometry width="140" height="30" as="geometry" />
        </mxCell>
        <mxCell id="yuesj6V39DcN7nB38oiK-43" value="&amp;nbsp; &amp;nbsp; &amp;nbsp; &amp;nbsp; &amp;nbsp; &amp;nbsp; &amp;nbsp; &amp;nbsp; &amp;nbsp; &amp;nbsp; &amp;nbsp; &amp;nbsp; &amp;nbsp; &amp;nbsp; &amp;nbsp; &amp;nbsp; &amp;nbsp; &amp;nbsp; &amp;nbsp;address" style="shape=partialRectangle;top=0;left=0;right=0;bottom=0;html=1;align=left;verticalAlign=middle;fillColor=none;spacingLeft=60;spacingRight=4;whiteSpace=wrap;overflow=hidden;rotatable=0;points=[[0,0.5],[1,0.5]];portConstraint=eastwest;dropTarget=0;fontStyle=1;" vertex="1" parent="yuesj6V39DcN7nB38oiK-40">
          <mxGeometry y="86" width="420" height="30" as="geometry" />
        </mxCell>
        <mxCell id="yuesj6V39DcN7nB38oiK-44" value="owner" style="shape=partialRectangle;fontStyle=1;top=0;left=0;bottom=0;html=1;fillColor=none;align=center;verticalAlign=middle;spacingLeft=4;spacingRight=4;whiteSpace=wrap;overflow=hidden;rotatable=0;points=[];portConstraint=eastwest;part=1;" vertex="1" connectable="0" parent="yuesj6V39DcN7nB38oiK-43">
          <mxGeometry width="140" height="30" as="geometry" />
        </mxCell>
        <mxCell id="yuesj6V39DcN7nB38oiK-45" value="&amp;nbsp; &amp;nbsp; &amp;nbsp; &amp;nbsp; &amp;nbsp; &amp;nbsp; &amp;nbsp; &amp;nbsp; &amp;nbsp; &amp;nbsp; &amp;nbsp; &amp;nbsp; &amp;nbsp; &amp;nbsp; &amp;nbsp; &amp;nbsp; &amp;nbsp; &amp;nbsp; &amp;nbsp;&lt;b&gt;Pool object&lt;/b&gt;" style="shape=partialRectangle;top=0;left=0;right=0;bottom=0;html=1;align=left;verticalAlign=top;fillColor=none;spacingLeft=60;spacingRight=4;whiteSpace=wrap;overflow=hidden;rotatable=0;points=[[0,0.5],[1,0.5]];portConstraint=eastwest;dropTarget=0;" vertex="1" parent="yuesj6V39DcN7nB38oiK-40">
          <mxGeometry y="116" width="420" height="26" as="geometry" />
        </mxCell>
        <mxCell id="yuesj6V39DcN7nB38oiK-46" value="Pool" style="shape=partialRectangle;top=0;left=0;bottom=0;html=1;fillColor=none;align=center;verticalAlign=top;spacingLeft=4;spacingRight=4;whiteSpace=wrap;overflow=hidden;rotatable=0;points=[];portConstraint=eastwest;part=1;fontStyle=1" vertex="1" connectable="0" parent="yuesj6V39DcN7nB38oiK-45">
          <mxGeometry width="140" height="26" as="geometry" />
        </mxCell>
        <mxCell id="yuesj6V39DcN7nB38oiK-55" value="&amp;nbsp; &amp;nbsp; &amp;nbsp; &amp;nbsp; &amp;nbsp; &amp;nbsp; &amp;nbsp; &amp;nbsp; &amp;nbsp; &amp;nbsp; &amp;nbsp; &amp;nbsp; &amp;nbsp; &amp;nbsp; &amp;nbsp; &amp;nbsp; &amp;nbsp; &amp;nbsp; &amp;nbsp;String" style="shape=partialRectangle;top=0;left=0;right=0;bottom=0;html=1;align=left;verticalAlign=top;fillColor=none;spacingLeft=60;spacingRight=4;whiteSpace=wrap;overflow=hidden;rotatable=0;points=[[0,0.5],[1,0.5]];portConstraint=eastwest;dropTarget=0;fontStyle=1" vertex="1" parent="yuesj6V39DcN7nB38oiK-40">
          <mxGeometry y="142" width="420" height="26" as="geometry" />
        </mxCell>
        <mxCell id="yuesj6V39DcN7nB38oiK-56" value="&lt;span&gt;Cuisine type&lt;/span&gt;" style="shape=partialRectangle;top=0;left=0;bottom=0;html=1;fillColor=none;align=center;verticalAlign=top;spacingLeft=4;spacingRight=4;whiteSpace=wrap;overflow=hidden;rotatable=0;points=[];portConstraint=eastwest;part=1;fontStyle=1" vertex="1" connectable="0" parent="yuesj6V39DcN7nB38oiK-55">
          <mxGeometry width="140" height="26" as="geometry" />
        </mxCell>
        <mxCell id="yuesj6V39DcN7nB38oiK-58" value="&amp;nbsp; &amp;nbsp; &amp;nbsp; &amp;nbsp; &amp;nbsp; &amp;nbsp; &amp;nbsp; &amp;nbsp; &amp;nbsp; &amp;nbsp; &amp;nbsp; &amp;nbsp; &amp;nbsp; &amp;nbsp; &amp;nbsp; &amp;nbsp; &amp;nbsp; &amp;nbsp; &amp;nbsp;String" style="shape=partialRectangle;top=0;left=0;right=0;bottom=0;html=1;align=left;verticalAlign=top;fillColor=none;spacingLeft=60;spacingRight=4;whiteSpace=wrap;overflow=hidden;rotatable=0;points=[[0,0.5],[1,0.5]];portConstraint=eastwest;dropTarget=0;fontStyle=1" vertex="1" parent="yuesj6V39DcN7nB38oiK-40">
          <mxGeometry y="168" width="420" height="26" as="geometry" />
        </mxCell>
        <mxCell id="yuesj6V39DcN7nB38oiK-59" value="&lt;span&gt;Location&lt;/span&gt;" style="shape=partialRectangle;top=0;left=0;bottom=0;html=1;fillColor=none;align=center;verticalAlign=top;spacingLeft=4;spacingRight=4;whiteSpace=wrap;overflow=hidden;rotatable=0;points=[];portConstraint=eastwest;part=1;fontStyle=1" vertex="1" connectable="0" parent="yuesj6V39DcN7nB38oiK-58">
          <mxGeometry width="140" height="26" as="geometry" />
        </mxCell>
        <mxCell id="yuesj6V39DcN7nB38oiK-60" value="&amp;nbsp; &amp;nbsp; &amp;nbsp; &amp;nbsp; &amp;nbsp; &amp;nbsp; &amp;nbsp; &amp;nbsp; &amp;nbsp; &amp;nbsp; &amp;nbsp; &amp;nbsp; &amp;nbsp; &amp;nbsp; &amp;nbsp; &amp;nbsp; &amp;nbsp; &amp;nbsp; &amp;nbsp;&lt;b&gt;String&lt;/b&gt;" style="shape=partialRectangle;top=0;left=0;right=0;bottom=0;html=1;align=left;verticalAlign=top;fillColor=none;spacingLeft=60;spacingRight=4;whiteSpace=wrap;overflow=hidden;rotatable=0;points=[[0,0.5],[1,0.5]];portConstraint=eastwest;dropTarget=0;" vertex="1" parent="yuesj6V39DcN7nB38oiK-40">
          <mxGeometry y="194" width="420" height="26" as="geometry" />
        </mxCell>
        <mxCell id="yuesj6V39DcN7nB38oiK-61" value="Google map url" style="shape=partialRectangle;top=0;left=0;bottom=0;html=1;fillColor=none;align=center;verticalAlign=top;spacingLeft=4;spacingRight=4;whiteSpace=wrap;overflow=hidden;rotatable=0;points=[];portConstraint=eastwest;part=1;fontStyle=1" vertex="1" connectable="0" parent="yuesj6V39DcN7nB38oiK-60">
          <mxGeometry width="140" height="26" as="geometry" />
        </mxCell>
        <mxCell id="yuesj6V39DcN7nB38oiK-78" value="&amp;nbsp; &amp;nbsp; &amp;nbsp; &amp;nbsp; &amp;nbsp; &amp;nbsp; &amp;nbsp; &amp;nbsp; &amp;nbsp; &amp;nbsp; &amp;nbsp; &amp;nbsp; &amp;nbsp; &amp;nbsp; &amp;nbsp; &amp;nbsp; &amp;nbsp; &amp;nbsp; &amp;nbsp;&lt;b&gt;String&lt;/b&gt;" style="shape=partialRectangle;top=0;left=0;right=0;bottom=0;html=1;align=left;verticalAlign=top;fillColor=none;spacingLeft=60;spacingRight=4;whiteSpace=wrap;overflow=hidden;rotatable=0;points=[[0,0.5],[1,0.5]];portConstraint=eastwest;dropTarget=0;" vertex="1" parent="yuesj6V39DcN7nB38oiK-40">
          <mxGeometry y="220" width="420" height="26" as="geometry" />
        </mxCell>
        <mxCell id="yuesj6V39DcN7nB38oiK-79" value="Operation hours" style="shape=partialRectangle;top=0;left=0;bottom=0;html=1;fillColor=none;align=center;verticalAlign=top;spacingLeft=4;spacingRight=4;whiteSpace=wrap;overflow=hidden;rotatable=0;points=[];portConstraint=eastwest;part=1;fontStyle=1" vertex="1" connectable="0" parent="yuesj6V39DcN7nB38oiK-78">
          <mxGeometry width="140" height="26" as="geometry" />
        </mxCell>
        <mxCell id="yuesj6V39DcN7nB38oiK-69" value="&amp;nbsp; &amp;nbsp; &amp;nbsp; &amp;nbsp; &amp;nbsp; &amp;nbsp; &amp;nbsp; &amp;nbsp; &amp;nbsp; &amp;nbsp; &amp;nbsp; &amp;nbsp; &amp;nbsp; &amp;nbsp; &amp;nbsp; &amp;nbsp; &amp;nbsp; &amp;nbsp; &amp;nbsp;&lt;b&gt;String&lt;/b&gt;" style="shape=partialRectangle;top=0;left=0;right=0;bottom=0;html=1;align=left;verticalAlign=top;fillColor=none;spacingLeft=60;spacingRight=4;whiteSpace=wrap;overflow=hidden;rotatable=0;points=[[0,0.5],[1,0.5]];portConstraint=eastwest;dropTarget=0;" vertex="1" parent="yuesj6V39DcN7nB38oiK-40">
          <mxGeometry y="246" width="420" height="26" as="geometry" />
        </mxCell>
        <mxCell id="yuesj6V39DcN7nB38oiK-70" value="&lt;span&gt;URL&lt;/span&gt;" style="shape=partialRectangle;top=0;left=0;bottom=0;html=1;fillColor=none;align=center;verticalAlign=top;spacingLeft=4;spacingRight=4;whiteSpace=wrap;overflow=hidden;rotatable=0;points=[];portConstraint=eastwest;part=1;fontStyle=1" vertex="1" connectable="0" parent="yuesj6V39DcN7nB38oiK-69">
          <mxGeometry width="140" height="26" as="geometry" />
        </mxCell>
        <mxCell id="yuesj6V39DcN7nB38oiK-72" value="&amp;nbsp; &amp;nbsp; &amp;nbsp; &amp;nbsp; &amp;nbsp; &amp;nbsp; &amp;nbsp; &amp;nbsp; &amp;nbsp; &amp;nbsp; &amp;nbsp; &amp;nbsp; &amp;nbsp; &amp;nbsp; &amp;nbsp; &amp;nbsp; &amp;nbsp; &amp;nbsp; &amp;nbsp;&lt;b&gt;vector&amp;lt;u8&amp;gt;&lt;/b&gt;" style="shape=partialRectangle;top=0;left=0;right=0;bottom=0;html=1;align=left;verticalAlign=top;fillColor=none;spacingLeft=60;spacingRight=4;whiteSpace=wrap;overflow=hidden;rotatable=0;points=[[0,0.5],[1,0.5]];portConstraint=eastwest;dropTarget=0;" vertex="1" parent="yuesj6V39DcN7nB38oiK-40">
          <mxGeometry y="272" width="420" height="26" as="geometry" />
        </mxCell>
        <mxCell id="yuesj6V39DcN7nB38oiK-73" value="&lt;span&gt;picture URLs&lt;/span&gt;" style="shape=partialRectangle;top=0;left=0;bottom=0;html=1;fillColor=none;align=center;verticalAlign=top;spacingLeft=4;spacingRight=4;whiteSpace=wrap;overflow=hidden;rotatable=0;points=[];portConstraint=eastwest;part=1;fontStyle=1" vertex="1" connectable="0" parent="yuesj6V39DcN7nB38oiK-72">
          <mxGeometry width="140" height="26" as="geometry" />
        </mxCell>
        <mxCell id="yuesj6V39DcN7nB38oiK-76" value="&amp;nbsp; &amp;nbsp; &amp;nbsp; &amp;nbsp; &amp;nbsp; &amp;nbsp; &amp;nbsp; &amp;nbsp; &amp;nbsp; &amp;nbsp; &amp;nbsp; &amp;nbsp; &amp;nbsp; &amp;nbsp; &amp;nbsp; &amp;nbsp; &amp;nbsp; &amp;nbsp; &amp;nbsp;&lt;b&gt;vector&amp;lt;address&amp;gt;&lt;/b&gt;" style="shape=partialRectangle;top=0;left=0;right=0;bottom=0;html=1;align=left;verticalAlign=top;fillColor=none;spacingLeft=60;spacingRight=4;whiteSpace=wrap;overflow=hidden;rotatable=0;points=[[0,0.5],[1,0.5]];portConstraint=eastwest;dropTarget=0;" vertex="1" parent="yuesj6V39DcN7nB38oiK-40">
          <mxGeometry y="298" width="420" height="26" as="geometry" />
        </mxCell>
        <mxCell id="yuesj6V39DcN7nB38oiK-77" value="&lt;span&gt;reviewer list&lt;/span&gt;" style="shape=partialRectangle;top=0;left=0;bottom=0;html=1;fillColor=none;align=center;verticalAlign=top;spacingLeft=4;spacingRight=4;whiteSpace=wrap;overflow=hidden;rotatable=0;points=[];portConstraint=eastwest;part=1;fontStyle=1" vertex="1" connectable="0" parent="yuesj6V39DcN7nB38oiK-76">
          <mxGeometry width="140" height="26" as="geometry" />
        </mxCell>
        <mxCell id="yuesj6V39DcN7nB38oiK-74" value="&amp;nbsp; &amp;nbsp; &amp;nbsp; &amp;nbsp; &amp;nbsp; &amp;nbsp; &amp;nbsp; &amp;nbsp; &amp;nbsp; &amp;nbsp; &amp;nbsp; &amp;nbsp; &amp;nbsp; &amp;nbsp; &amp;nbsp; &amp;nbsp; &amp;nbsp; &amp;nbsp; &amp;nbsp;&lt;b&gt;Table&amp;lt;address, Unlocked review object&amp;gt;&lt;/b&gt;" style="shape=partialRectangle;top=0;left=0;right=0;bottom=0;html=1;align=left;verticalAlign=top;fillColor=none;spacingLeft=60;spacingRight=4;whiteSpace=wrap;overflow=hidden;rotatable=0;points=[[0,0.5],[1,0.5]];portConstraint=eastwest;dropTarget=0;" vertex="1" parent="yuesj6V39DcN7nB38oiK-40">
          <mxGeometry y="324" width="420" height="26" as="geometry" />
        </mxCell>
        <mxCell id="yuesj6V39DcN7nB38oiK-75" value="&lt;span&gt;review list&lt;/span&gt;" style="shape=partialRectangle;top=0;left=0;bottom=0;html=1;fillColor=none;align=center;verticalAlign=top;spacingLeft=4;spacingRight=4;whiteSpace=wrap;overflow=hidden;rotatable=0;points=[];portConstraint=eastwest;part=1;fontStyle=1" vertex="1" connectable="0" parent="yuesj6V39DcN7nB38oiK-74">
          <mxGeometry width="140" height="26" as="geometry" />
        </mxCell>
        <mxCell id="yuesj6V39DcN7nB38oiK-80" value="&amp;nbsp; &amp;nbsp; &amp;nbsp; &amp;nbsp; &amp;nbsp; &amp;nbsp; &amp;nbsp; &amp;nbsp; &amp;nbsp; &amp;nbsp; &amp;nbsp; &amp;nbsp; &amp;nbsp; &amp;nbsp; &amp;nbsp; &amp;nbsp; &amp;nbsp; &amp;nbsp; &amp;nbsp;&lt;b&gt;u8&lt;/b&gt;" style="shape=partialRectangle;top=0;left=0;right=0;bottom=0;html=1;align=left;verticalAlign=top;fillColor=none;spacingLeft=60;spacingRight=4;whiteSpace=wrap;overflow=hidden;rotatable=0;points=[[0,0.5],[1,0.5]];portConstraint=eastwest;dropTarget=0;" vertex="1" parent="yuesj6V39DcN7nB38oiK-40">
          <mxGeometry y="350" width="420" height="26" as="geometry" />
        </mxCell>
        <mxCell id="yuesj6V39DcN7nB38oiK-81" value="rating" style="shape=partialRectangle;top=0;left=0;bottom=0;html=1;fillColor=none;align=center;verticalAlign=top;spacingLeft=4;spacingRight=4;whiteSpace=wrap;overflow=hidden;rotatable=0;points=[];portConstraint=eastwest;part=1;fontStyle=1" vertex="1" connectable="0" parent="yuesj6V39DcN7nB38oiK-80">
          <mxGeometry width="140" height="26" as="geometry" />
        </mxCell>
        <mxCell id="yuesj6V39DcN7nB38oiK-53" value="" style="endArrow=ERmany;html=1;rounded=0;endFill=0;" edge="1" parent="1">
          <mxGeometry width="50" height="50" relative="1" as="geometry">
            <mxPoint x="110" y="330" as="sourcePoint" />
            <mxPoint x="110" y="400" as="targetPoint" />
          </mxGeometry>
        </mxCell>
        <mxCell id="yuesj6V39DcN7nB38oiK-84" value="Unlocked Review Object" style="swimlane;html=1;fontStyle=0;childLayout=stackLayout;horizontal=1;startSize=26;fillColor=#e0e0e0;horizontalStack=0;resizeParent=1;resizeLast=0;collapsible=1;marginBottom=0;swimlaneFillColor=#ffffff;align=center;rounded=0;shadow=0;comic=0;labelBackgroundColor=none;strokeWidth=1;fontFamily=Verdana;fontSize=14" vertex="1" parent="1">
          <mxGeometry x="707.5" y="520" width="280" height="250" as="geometry" />
        </mxCell>
        <mxCell id="yuesj6V39DcN7nB38oiK-158" value="&amp;nbsp; &amp;nbsp; &amp;nbsp; &amp;nbsp; Value" style="shape=partialRectangle;top=0;left=0;right=0;bottom=1;html=1;align=center;verticalAlign=middle;fillColor=none;spacingLeft=60;spacingRight=4;whiteSpace=wrap;overflow=hidden;rotatable=0;points=[[0,0.5],[1,0.5]];portConstraint=eastwest;dropTarget=0;fontStyle=1;labelPosition=center;verticalLabelPosition=middle;" vertex="1" parent="yuesj6V39DcN7nB38oiK-84">
          <mxGeometry y="26" width="280" height="30" as="geometry" />
        </mxCell>
        <mxCell id="yuesj6V39DcN7nB38oiK-159" value="Key" style="shape=partialRectangle;fontStyle=1;top=0;left=0;bottom=0;html=1;fillColor=none;align=center;verticalAlign=middle;spacingLeft=4;spacingRight=4;whiteSpace=wrap;overflow=hidden;rotatable=0;points=[];portConstraint=eastwest;part=1;" vertex="1" connectable="0" parent="yuesj6V39DcN7nB38oiK-158">
          <mxGeometry width="130" height="30" as="geometry" />
        </mxCell>
        <mxCell id="yuesj6V39DcN7nB38oiK-85" value="&amp;nbsp; &amp;nbsp; &amp;nbsp; &amp;nbsp; &amp;nbsp; &amp;nbsp; &amp;nbsp; &amp;nbsp; &amp;nbsp; &amp;nbsp; &amp;nbsp; &amp;nbsp; &amp;nbsp; &amp;nbsp; &amp;nbsp; &amp;nbsp; &amp;nbsp; UID" style="shape=partialRectangle;top=0;left=0;right=0;bottom=0;html=1;align=left;verticalAlign=middle;fillColor=none;spacingLeft=60;spacingRight=4;whiteSpace=wrap;overflow=hidden;rotatable=0;points=[[0,0.5],[1,0.5]];portConstraint=eastwest;dropTarget=0;fontStyle=1;labelPosition=center;verticalLabelPosition=middle;" vertex="1" parent="yuesj6V39DcN7nB38oiK-84">
          <mxGeometry y="56" width="280" height="30" as="geometry" />
        </mxCell>
        <mxCell id="yuesj6V39DcN7nB38oiK-86" value="ID" style="shape=partialRectangle;fontStyle=1;top=0;left=0;bottom=0;html=1;fillColor=none;align=center;verticalAlign=middle;spacingLeft=4;spacingRight=4;whiteSpace=wrap;overflow=hidden;rotatable=0;points=[];portConstraint=eastwest;part=1;" vertex="1" connectable="0" parent="yuesj6V39DcN7nB38oiK-85">
          <mxGeometry width="130" height="30" as="geometry" />
        </mxCell>
        <mxCell id="yuesj6V39DcN7nB38oiK-87" value="&amp;nbsp; &amp;nbsp; &amp;nbsp; &amp;nbsp; &amp;nbsp; &amp;nbsp; &amp;nbsp; &amp;nbsp; &amp;nbsp; &amp;nbsp; &amp;nbsp; &amp;nbsp; &amp;nbsp; &amp;nbsp; &amp;nbsp; &amp;nbsp; &amp;nbsp; address" style="shape=partialRectangle;top=0;left=0;right=0;bottom=0;html=1;align=left;verticalAlign=middle;fillColor=none;spacingLeft=60;spacingRight=4;whiteSpace=wrap;overflow=hidden;rotatable=0;points=[[0,0.5],[1,0.5]];portConstraint=eastwest;dropTarget=0;fontStyle=1;" vertex="1" parent="yuesj6V39DcN7nB38oiK-84">
          <mxGeometry y="86" width="280" height="30" as="geometry" />
        </mxCell>
        <mxCell id="yuesj6V39DcN7nB38oiK-88" value="Reviewer" style="shape=partialRectangle;fontStyle=1;top=0;left=0;bottom=0;html=1;fillColor=none;align=center;verticalAlign=middle;spacingLeft=4;spacingRight=4;whiteSpace=wrap;overflow=hidden;rotatable=0;points=[];portConstraint=eastwest;part=1;" vertex="1" connectable="0" parent="yuesj6V39DcN7nB38oiK-87">
          <mxGeometry width="130" height="30" as="geometry" />
        </mxCell>
        <mxCell id="yuesj6V39DcN7nB38oiK-89" value="&lt;b&gt;&amp;nbsp; &amp;nbsp; &amp;nbsp; &amp;nbsp; &amp;nbsp; &amp;nbsp; &amp;nbsp; &amp;nbsp; &amp;nbsp; &amp;nbsp; &amp;nbsp; &amp;nbsp; &amp;nbsp; &amp;nbsp; &amp;nbsp; &amp;nbsp; &amp;nbsp; address&lt;/b&gt;" style="shape=partialRectangle;top=0;left=0;right=0;bottom=0;html=1;align=left;verticalAlign=top;fillColor=none;spacingLeft=60;spacingRight=4;whiteSpace=wrap;overflow=hidden;rotatable=0;points=[[0,0.5],[1,0.5]];portConstraint=eastwest;dropTarget=0;" vertex="1" parent="yuesj6V39DcN7nB38oiK-84">
          <mxGeometry y="116" width="280" height="26" as="geometry" />
        </mxCell>
        <mxCell id="yuesj6V39DcN7nB38oiK-90" value="Service" style="shape=partialRectangle;top=0;left=0;bottom=0;html=1;fillColor=none;align=center;verticalAlign=top;spacingLeft=4;spacingRight=4;whiteSpace=wrap;overflow=hidden;rotatable=0;points=[];portConstraint=eastwest;part=1;fontStyle=1" vertex="1" connectable="0" parent="yuesj6V39DcN7nB38oiK-89">
          <mxGeometry width="130" height="26" as="geometry" />
        </mxCell>
        <mxCell id="yuesj6V39DcN7nB38oiK-91" value="&amp;nbsp; &amp;nbsp; &amp;nbsp; &amp;nbsp; &amp;nbsp; &amp;nbsp; &amp;nbsp; &amp;nbsp; &amp;nbsp; &amp;nbsp; &amp;nbsp; &amp;nbsp; &amp;nbsp; &amp;nbsp; &amp;nbsp; &amp;nbsp; &amp;nbsp; String" style="shape=partialRectangle;top=0;left=0;right=0;bottom=0;html=1;align=left;verticalAlign=top;fillColor=none;spacingLeft=60;spacingRight=4;whiteSpace=wrap;overflow=hidden;rotatable=0;points=[[0,0.5],[1,0.5]];portConstraint=eastwest;dropTarget=0;fontStyle=1" vertex="1" parent="yuesj6V39DcN7nB38oiK-84">
          <mxGeometry y="142" width="280" height="26" as="geometry" />
        </mxCell>
        <mxCell id="yuesj6V39DcN7nB38oiK-92" value="Body" style="shape=partialRectangle;top=0;left=0;bottom=0;html=1;fillColor=none;align=center;verticalAlign=top;spacingLeft=4;spacingRight=4;whiteSpace=wrap;overflow=hidden;rotatable=0;points=[];portConstraint=eastwest;part=1;fontStyle=1" vertex="1" connectable="0" parent="yuesj6V39DcN7nB38oiK-91">
          <mxGeometry width="130" height="26" as="geometry" />
        </mxCell>
        <mxCell id="yuesj6V39DcN7nB38oiK-93" value="&amp;nbsp; &amp;nbsp; &amp;nbsp; &amp;nbsp; &amp;nbsp; &amp;nbsp; &amp;nbsp; &amp;nbsp; &amp;nbsp; &amp;nbsp; &amp;nbsp; &amp;nbsp; &amp;nbsp; &amp;nbsp; &amp;nbsp; &amp;nbsp; &amp;nbsp; u8" style="shape=partialRectangle;top=0;left=0;right=0;bottom=0;html=1;align=left;verticalAlign=top;fillColor=none;spacingLeft=60;spacingRight=4;whiteSpace=wrap;overflow=hidden;rotatable=0;points=[[0,0.5],[1,0.5]];portConstraint=eastwest;dropTarget=0;fontStyle=1" vertex="1" parent="yuesj6V39DcN7nB38oiK-84">
          <mxGeometry y="168" width="280" height="26" as="geometry" />
        </mxCell>
        <mxCell id="yuesj6V39DcN7nB38oiK-94" value="Up vote" style="shape=partialRectangle;top=0;left=0;bottom=0;html=1;fillColor=none;align=center;verticalAlign=top;spacingLeft=4;spacingRight=4;whiteSpace=wrap;overflow=hidden;rotatable=0;points=[];portConstraint=eastwest;part=1;fontStyle=1" vertex="1" connectable="0" parent="yuesj6V39DcN7nB38oiK-93">
          <mxGeometry width="130" height="26" as="geometry" />
        </mxCell>
        <mxCell id="yuesj6V39DcN7nB38oiK-95" value="&amp;nbsp; &amp;nbsp; &amp;nbsp; &amp;nbsp; &amp;nbsp; &amp;nbsp; &amp;nbsp; &amp;nbsp; &amp;nbsp; &amp;nbsp; &amp;nbsp; &amp;nbsp; &amp;nbsp; &amp;nbsp; &amp;nbsp; &amp;nbsp; &amp;nbsp; &lt;b&gt;u8&lt;/b&gt;" style="shape=partialRectangle;top=0;left=0;right=0;bottom=0;html=1;align=left;verticalAlign=top;fillColor=none;spacingLeft=60;spacingRight=4;whiteSpace=wrap;overflow=hidden;rotatable=0;points=[[0,0.5],[1,0.5]];portConstraint=eastwest;dropTarget=0;" vertex="1" parent="yuesj6V39DcN7nB38oiK-84">
          <mxGeometry y="194" width="280" height="26" as="geometry" />
        </mxCell>
        <mxCell id="yuesj6V39DcN7nB38oiK-96" value="Down vote" style="shape=partialRectangle;top=0;left=0;bottom=0;html=1;fillColor=none;align=center;verticalAlign=top;spacingLeft=4;spacingRight=4;whiteSpace=wrap;overflow=hidden;rotatable=0;points=[];portConstraint=eastwest;part=1;fontStyle=1" vertex="1" connectable="0" parent="yuesj6V39DcN7nB38oiK-95">
          <mxGeometry width="130" height="26" as="geometry" />
        </mxCell>
        <mxCell id="yuesj6V39DcN7nB38oiK-97" value="&amp;nbsp; &amp;nbsp; &amp;nbsp; &amp;nbsp; &amp;nbsp; &amp;nbsp; &amp;nbsp; &amp;nbsp; &amp;nbsp; &amp;nbsp; &amp;nbsp; &amp;nbsp; &amp;nbsp; &amp;nbsp; &amp;nbsp; &amp;nbsp; &amp;nbsp; &lt;b&gt;vector&amp;lt;address&amp;gt;&lt;/b&gt;" style="shape=partialRectangle;top=0;left=0;right=0;bottom=0;html=1;align=left;verticalAlign=top;fillColor=none;spacingLeft=60;spacingRight=4;whiteSpace=wrap;overflow=hidden;rotatable=0;points=[[0,0.5],[1,0.5]];portConstraint=eastwest;dropTarget=0;" vertex="1" parent="yuesj6V39DcN7nB38oiK-84">
          <mxGeometry y="220" width="280" height="26" as="geometry" />
        </mxCell>
        <mxCell id="yuesj6V39DcN7nB38oiK-98" value="Access grant users" style="shape=partialRectangle;top=0;left=0;bottom=0;html=1;fillColor=none;align=center;verticalAlign=top;spacingLeft=4;spacingRight=4;whiteSpace=wrap;overflow=hidden;rotatable=0;points=[];portConstraint=eastwest;part=1;fontStyle=1" vertex="1" connectable="0" parent="yuesj6V39DcN7nB38oiK-97">
          <mxGeometry width="130" height="26" as="geometry" />
        </mxCell>
        <mxCell id="yuesj6V39DcN7nB38oiK-110" value="Locked Review Object" style="swimlane;html=1;fontStyle=0;childLayout=stackLayout;horizontal=1;startSize=26;fillColor=#e0e0e0;horizontalStack=0;resizeParent=1;resizeLast=0;collapsible=1;marginBottom=0;swimlaneFillColor=#ffffff;align=center;rounded=0;shadow=0;comic=0;labelBackgroundColor=none;strokeWidth=1;fontFamily=Verdana;fontSize=14" vertex="1" parent="1">
          <mxGeometry x="1300" y="130" width="252.5" height="250" as="geometry" />
        </mxCell>
        <mxCell id="yuesj6V39DcN7nB38oiK-168" value="&amp;nbsp; &amp;nbsp; &amp;nbsp; &amp;nbsp; &amp;nbsp; &amp;nbsp; &amp;nbsp; &amp;nbsp; &amp;nbsp; &amp;nbsp; &amp;nbsp; &amp;nbsp; &amp;nbsp; Value" style="shape=partialRectangle;top=0;left=0;right=0;bottom=1;html=1;align=left;verticalAlign=middle;fillColor=none;spacingLeft=60;spacingRight=4;whiteSpace=wrap;overflow=hidden;rotatable=0;points=[[0,0.5],[1,0.5]];portConstraint=eastwest;dropTarget=0;fontStyle=1;labelPosition=center;verticalLabelPosition=middle;" vertex="1" parent="yuesj6V39DcN7nB38oiK-110">
          <mxGeometry y="26" width="252.5" height="30" as="geometry" />
        </mxCell>
        <mxCell id="yuesj6V39DcN7nB38oiK-169" value="Key" style="shape=partialRectangle;fontStyle=1;top=0;left=0;bottom=0;html=1;fillColor=none;align=center;verticalAlign=middle;spacingLeft=4;spacingRight=4;whiteSpace=wrap;overflow=hidden;rotatable=0;points=[];portConstraint=eastwest;part=1;" vertex="1" connectable="0" parent="yuesj6V39DcN7nB38oiK-168">
          <mxGeometry width="110" height="30" as="geometry" />
        </mxCell>
        <mxCell id="yuesj6V39DcN7nB38oiK-111" value="&amp;nbsp; &amp;nbsp; &amp;nbsp; &amp;nbsp; &amp;nbsp; &amp;nbsp; &amp;nbsp; &amp;nbsp; &amp;nbsp; &amp;nbsp; &amp;nbsp; &amp;nbsp; &amp;nbsp; &amp;nbsp;UID" style="shape=partialRectangle;top=0;left=0;right=0;bottom=0;html=1;align=left;verticalAlign=middle;fillColor=none;spacingLeft=60;spacingRight=4;whiteSpace=wrap;overflow=hidden;rotatable=0;points=[[0,0.5],[1,0.5]];portConstraint=eastwest;dropTarget=0;fontStyle=1;labelPosition=center;verticalLabelPosition=middle;" vertex="1" parent="yuesj6V39DcN7nB38oiK-110">
          <mxGeometry y="56" width="252.5" height="30" as="geometry" />
        </mxCell>
        <mxCell id="yuesj6V39DcN7nB38oiK-112" value="ID" style="shape=partialRectangle;fontStyle=1;top=0;left=0;bottom=0;html=1;fillColor=none;align=center;verticalAlign=middle;spacingLeft=4;spacingRight=4;whiteSpace=wrap;overflow=hidden;rotatable=0;points=[];portConstraint=eastwest;part=1;" vertex="1" connectable="0" parent="yuesj6V39DcN7nB38oiK-111">
          <mxGeometry width="110" height="30" as="geometry" />
        </mxCell>
        <mxCell id="yuesj6V39DcN7nB38oiK-113" value="&amp;nbsp; &amp;nbsp; &amp;nbsp; &amp;nbsp; &amp;nbsp; &amp;nbsp; &amp;nbsp; &amp;nbsp; &amp;nbsp; &amp;nbsp; &amp;nbsp; &amp;nbsp; &amp;nbsp; &amp;nbsp;address" style="shape=partialRectangle;top=0;left=0;right=0;bottom=0;html=1;align=left;verticalAlign=middle;fillColor=none;spacingLeft=60;spacingRight=4;whiteSpace=wrap;overflow=hidden;rotatable=0;points=[[0,0.5],[1,0.5]];portConstraint=eastwest;dropTarget=0;fontStyle=1;" vertex="1" parent="yuesj6V39DcN7nB38oiK-110">
          <mxGeometry y="86" width="252.5" height="30" as="geometry" />
        </mxCell>
        <mxCell id="yuesj6V39DcN7nB38oiK-114" value="Reviewer" style="shape=partialRectangle;fontStyle=1;top=0;left=0;bottom=0;html=1;fillColor=none;align=center;verticalAlign=middle;spacingLeft=4;spacingRight=4;whiteSpace=wrap;overflow=hidden;rotatable=0;points=[];portConstraint=eastwest;part=1;" vertex="1" connectable="0" parent="yuesj6V39DcN7nB38oiK-113">
          <mxGeometry width="110" height="30" as="geometry" />
        </mxCell>
        <mxCell id="yuesj6V39DcN7nB38oiK-115" value="&lt;b&gt;&amp;nbsp; &amp;nbsp; &amp;nbsp; &amp;nbsp; &amp;nbsp; &amp;nbsp; &amp;nbsp; &amp;nbsp; &amp;nbsp; &amp;nbsp; &amp;nbsp; &amp;nbsp; &amp;nbsp; &amp;nbsp;address&lt;/b&gt;" style="shape=partialRectangle;top=0;left=0;right=0;bottom=0;html=1;align=left;verticalAlign=top;fillColor=none;spacingLeft=60;spacingRight=4;whiteSpace=wrap;overflow=hidden;rotatable=0;points=[[0,0.5],[1,0.5]];portConstraint=eastwest;dropTarget=0;" vertex="1" parent="yuesj6V39DcN7nB38oiK-110">
          <mxGeometry y="116" width="252.5" height="26" as="geometry" />
        </mxCell>
        <mxCell id="yuesj6V39DcN7nB38oiK-116" value="Service" style="shape=partialRectangle;top=0;left=0;bottom=0;html=1;fillColor=none;align=center;verticalAlign=top;spacingLeft=4;spacingRight=4;whiteSpace=wrap;overflow=hidden;rotatable=0;points=[];portConstraint=eastwest;part=1;fontStyle=1" vertex="1" connectable="0" parent="yuesj6V39DcN7nB38oiK-115">
          <mxGeometry width="110" height="26" as="geometry" />
        </mxCell>
        <mxCell id="yuesj6V39DcN7nB38oiK-117" value="&amp;nbsp; &amp;nbsp; &amp;nbsp; &amp;nbsp; &amp;nbsp; &amp;nbsp; &amp;nbsp; &amp;nbsp; &amp;nbsp; &amp;nbsp; &amp;nbsp; &amp;nbsp; &amp;nbsp; &amp;nbsp;String" style="shape=partialRectangle;top=0;left=0;right=0;bottom=0;html=1;align=left;verticalAlign=top;fillColor=none;spacingLeft=60;spacingRight=4;whiteSpace=wrap;overflow=hidden;rotatable=0;points=[[0,0.5],[1,0.5]];portConstraint=eastwest;dropTarget=0;fontStyle=1" vertex="1" parent="yuesj6V39DcN7nB38oiK-110">
          <mxGeometry y="142" width="252.5" height="26" as="geometry" />
        </mxCell>
        <mxCell id="yuesj6V39DcN7nB38oiK-118" value="head" style="shape=partialRectangle;top=0;left=0;bottom=0;html=1;fillColor=none;align=center;verticalAlign=top;spacingLeft=4;spacingRight=4;whiteSpace=wrap;overflow=hidden;rotatable=0;points=[];portConstraint=eastwest;part=1;fontStyle=1" vertex="1" connectable="0" parent="yuesj6V39DcN7nB38oiK-117">
          <mxGeometry width="110" height="26" as="geometry" />
        </mxCell>
        <mxCell id="yuesj6V39DcN7nB38oiK-119" value="&amp;nbsp; &amp;nbsp; &amp;nbsp; &amp;nbsp; &amp;nbsp; &amp;nbsp; &amp;nbsp; &amp;nbsp; &amp;nbsp; &amp;nbsp; &amp;nbsp; &amp;nbsp; &amp;nbsp; &amp;nbsp;u8" style="shape=partialRectangle;top=0;left=0;right=0;bottom=0;html=1;align=left;verticalAlign=top;fillColor=none;spacingLeft=60;spacingRight=4;whiteSpace=wrap;overflow=hidden;rotatable=0;points=[[0,0.5],[1,0.5]];portConstraint=eastwest;dropTarget=0;fontStyle=1" vertex="1" parent="yuesj6V39DcN7nB38oiK-110">
          <mxGeometry y="168" width="252.5" height="26" as="geometry" />
        </mxCell>
        <mxCell id="yuesj6V39DcN7nB38oiK-120" value="total score" style="shape=partialRectangle;top=0;left=0;bottom=0;html=1;fillColor=none;align=center;verticalAlign=top;spacingLeft=4;spacingRight=4;whiteSpace=wrap;overflow=hidden;rotatable=0;points=[];portConstraint=eastwest;part=1;fontStyle=1" vertex="1" connectable="0" parent="yuesj6V39DcN7nB38oiK-119">
          <mxGeometry width="110" height="26" as="geometry" />
        </mxCell>
        <mxCell id="yuesj6V39DcN7nB38oiK-121" value="&amp;nbsp; &amp;nbsp; &amp;nbsp; &amp;nbsp; &amp;nbsp; &amp;nbsp; &amp;nbsp; &amp;nbsp; &amp;nbsp; &amp;nbsp; &amp;nbsp; &amp;nbsp; &amp;nbsp; &amp;nbsp;&lt;b&gt;u8&lt;/b&gt;" style="shape=partialRectangle;top=0;left=0;right=0;bottom=0;html=1;align=left;verticalAlign=top;fillColor=none;spacingLeft=60;spacingRight=4;whiteSpace=wrap;overflow=hidden;rotatable=0;points=[[0,0.5],[1,0.5]];portConstraint=eastwest;dropTarget=0;" vertex="1" parent="yuesj6V39DcN7nB38oiK-110">
          <mxGeometry y="194" width="252.5" height="26" as="geometry" />
        </mxCell>
        <mxCell id="yuesj6V39DcN7nB38oiK-122" value="decay rate" style="shape=partialRectangle;top=0;left=0;bottom=0;html=1;fillColor=none;align=center;verticalAlign=top;spacingLeft=4;spacingRight=4;whiteSpace=wrap;overflow=hidden;rotatable=0;points=[];portConstraint=eastwest;part=1;fontStyle=1" vertex="1" connectable="0" parent="yuesj6V39DcN7nB38oiK-121">
          <mxGeometry width="110" height="26" as="geometry" />
        </mxCell>
        <mxCell id="yuesj6V39DcN7nB38oiK-123" value="&amp;nbsp; &amp;nbsp; &amp;nbsp; &amp;nbsp; &amp;nbsp; &amp;nbsp; &amp;nbsp; &amp;nbsp; &amp;nbsp; &amp;nbsp; &amp;nbsp; &amp;nbsp; &amp;nbsp; &amp;nbsp;&lt;b&gt;Coin&amp;lt;SUI&amp;gt;&lt;/b&gt;" style="shape=partialRectangle;top=0;left=0;right=0;bottom=0;html=1;align=left;verticalAlign=top;fillColor=none;spacingLeft=60;spacingRight=4;whiteSpace=wrap;overflow=hidden;rotatable=0;points=[[0,0.5],[1,0.5]];portConstraint=eastwest;dropTarget=0;" vertex="1" parent="yuesj6V39DcN7nB38oiK-110">
          <mxGeometry y="220" width="252.5" height="26" as="geometry" />
        </mxCell>
        <mxCell id="yuesj6V39DcN7nB38oiK-124" value="minimum tip" style="shape=partialRectangle;top=0;left=0;bottom=0;html=1;fillColor=none;align=center;verticalAlign=top;spacingLeft=4;spacingRight=4;whiteSpace=wrap;overflow=hidden;rotatable=0;points=[];portConstraint=eastwest;part=1;fontStyle=1" vertex="1" connectable="0" parent="yuesj6V39DcN7nB38oiK-123">
          <mxGeometry width="110" height="26" as="geometry" />
        </mxCell>
        <mxCell id="yuesj6V39DcN7nB38oiK-132" value="Proof of Experience" style="swimlane;html=1;fontStyle=0;childLayout=stackLayout;horizontal=1;startSize=26;fillColor=#e0e0e0;horizontalStack=0;resizeParent=1;resizeLast=0;collapsible=1;marginBottom=0;swimlaneFillColor=#ffffff;align=center;rounded=0;shadow=0;comic=0;labelBackgroundColor=none;strokeWidth=1;fontFamily=Verdana;fontSize=14" vertex="1" parent="1">
          <mxGeometry x="1570" y="140" width="212" height="120" as="geometry" />
        </mxCell>
        <mxCell id="yuesj6V39DcN7nB38oiK-149" value="&amp;nbsp; &amp;nbsp; &amp;nbsp; &amp;nbsp; &amp;nbsp; &amp;nbsp; &amp;nbsp; &amp;nbsp; &amp;nbsp; &amp;nbsp; &amp;nbsp; &amp;nbsp; &amp;nbsp; Value" style="shape=partialRectangle;top=0;left=0;right=0;bottom=0;html=1;align=left;verticalAlign=middle;fillColor=none;spacingLeft=60;spacingRight=4;whiteSpace=wrap;overflow=hidden;rotatable=0;points=[[0,0.5],[1,0.5]];portConstraint=eastwest;dropTarget=0;fontStyle=1;labelPosition=center;verticalLabelPosition=middle;" vertex="1" parent="yuesj6V39DcN7nB38oiK-132">
          <mxGeometry y="26" width="212" height="30" as="geometry" />
        </mxCell>
        <mxCell id="yuesj6V39DcN7nB38oiK-150" value="Key" style="shape=partialRectangle;fontStyle=1;top=0;left=0;bottom=0;html=1;fillColor=none;align=center;verticalAlign=middle;spacingLeft=4;spacingRight=4;whiteSpace=wrap;overflow=hidden;rotatable=0;points=[];portConstraint=eastwest;part=1;" vertex="1" connectable="0" parent="yuesj6V39DcN7nB38oiK-149">
          <mxGeometry width="90" height="30" as="geometry" />
        </mxCell>
        <mxCell id="yuesj6V39DcN7nB38oiK-133" value="&amp;nbsp; &amp;nbsp; &amp;nbsp; &amp;nbsp; &amp;nbsp; &amp;nbsp; &amp;nbsp; &amp;nbsp; &amp;nbsp; &amp;nbsp; &amp;nbsp; &amp;nbsp; &amp;nbsp; UID" style="shape=partialRectangle;top=1;left=0;right=0;bottom=0;html=1;align=left;verticalAlign=middle;fillColor=none;spacingLeft=60;spacingRight=4;whiteSpace=wrap;overflow=hidden;rotatable=0;points=[[0,0.5],[1,0.5]];portConstraint=eastwest;dropTarget=0;fontStyle=1;labelPosition=center;verticalLabelPosition=middle;" vertex="1" parent="yuesj6V39DcN7nB38oiK-132">
          <mxGeometry y="56" width="212" height="30" as="geometry" />
        </mxCell>
        <mxCell id="yuesj6V39DcN7nB38oiK-134" value="ID" style="shape=partialRectangle;fontStyle=1;top=0;left=0;bottom=0;html=1;fillColor=none;align=center;verticalAlign=middle;spacingLeft=4;spacingRight=4;whiteSpace=wrap;overflow=hidden;rotatable=0;points=[];portConstraint=eastwest;part=1;" vertex="1" connectable="0" parent="yuesj6V39DcN7nB38oiK-133">
          <mxGeometry width="90" height="30" as="geometry" />
        </mxCell>
        <mxCell id="yuesj6V39DcN7nB38oiK-135" value="&amp;nbsp; &amp;nbsp; &amp;nbsp; &amp;nbsp; &amp;nbsp; &amp;nbsp; &amp;nbsp; &amp;nbsp; &amp;nbsp; &amp;nbsp; &amp;nbsp; &amp;nbsp; &amp;nbsp; String" style="shape=partialRectangle;top=0;left=0;right=0;bottom=0;html=1;align=left;verticalAlign=middle;fillColor=none;spacingLeft=60;spacingRight=4;whiteSpace=wrap;overflow=hidden;rotatable=0;points=[[0,0.5],[1,0.5]];portConstraint=eastwest;dropTarget=0;fontStyle=1;" vertex="1" parent="yuesj6V39DcN7nB38oiK-132">
          <mxGeometry y="86" width="212" height="30" as="geometry" />
        </mxCell>
        <mxCell id="yuesj6V39DcN7nB38oiK-136" value="timestamp" style="shape=partialRectangle;fontStyle=1;top=0;left=0;bottom=0;html=1;fillColor=none;align=center;verticalAlign=middle;spacingLeft=4;spacingRight=4;whiteSpace=wrap;overflow=hidden;rotatable=0;points=[];portConstraint=eastwest;part=1;" vertex="1" connectable="0" parent="yuesj6V39DcN7nB38oiK-135">
          <mxGeometry width="90" height="30" as="geometry" />
        </mxCell>
        <mxCell id="yuesj6V39DcN7nB38oiK-160" value="&lt;font style=&quot;font-size: 32px;&quot;&gt;Shared Object&lt;/font&gt;" style="text;html=1;strokeColor=none;fillColor=none;align=center;verticalAlign=middle;whiteSpace=wrap;rounded=0;" vertex="1" parent="1">
          <mxGeometry x="-57.5" y="40" width="325" height="65" as="geometry" />
        </mxCell>
        <mxCell id="yuesj6V39DcN7nB38oiK-161" value="&lt;span style=&quot;font-size: 32px;&quot;&gt;Service Owner&lt;/span&gt;" style="text;html=1;strokeColor=none;fillColor=none;align=center;verticalAlign=middle;whiteSpace=wrap;rounded=0;" vertex="1" parent="1">
          <mxGeometry x="662.5" y="40" width="325" height="65" as="geometry" />
        </mxCell>
        <mxCell id="yuesj6V39DcN7nB38oiK-166" value="" style="endArrow=ERmany;html=1;rounded=0;entryX=0.75;entryY=0;entryDx=0;entryDy=0;endFill=0;exitX=1.002;exitY=0.659;exitDx=0;exitDy=0;exitPerimeter=0;" edge="1" parent="1" source="yuesj6V39DcN7nB38oiK-74" target="yuesj6V39DcN7nB38oiK-84">
          <mxGeometry width="50" height="50" relative="1" as="geometry">
            <mxPoint x="930" y="450" as="sourcePoint" />
            <mxPoint x="1010" y="375" as="targetPoint" />
            <Array as="points">
              <mxPoint x="960" y="450" />
              <mxPoint x="960" y="490" />
              <mxPoint x="918" y="490" />
            </Array>
          </mxGeometry>
        </mxCell>
        <mxCell id="yuesj6V39DcN7nB38oiK-170" value="&lt;span style=&quot;font-size: 32px;&quot;&gt;Reviewer&lt;/span&gt;" style="text;html=1;strokeColor=none;fillColor=none;align=center;verticalAlign=middle;whiteSpace=wrap;rounded=0;" vertex="1" parent="1">
          <mxGeometry x="1397.5" y="45" width="325" height="65" as="geometry" />
        </mxCell>
        <mxCell id="yuesj6V39DcN7nB38oiK-171" value="Pool" style="swimlane;html=1;fontStyle=0;childLayout=stackLayout;horizontal=1;startSize=26;fillColor=#e0e0e0;horizontalStack=0;resizeParent=1;resizeLast=0;collapsible=1;marginBottom=0;swimlaneFillColor=#ffffff;align=center;rounded=0;shadow=0;comic=0;labelBackgroundColor=none;strokeWidth=1;fontFamily=Verdana;fontSize=14" vertex="1" parent="1">
          <mxGeometry x="950" y="130" width="230" height="180" as="geometry" />
        </mxCell>
        <mxCell id="yuesj6V39DcN7nB38oiK-172" value="&amp;nbsp; &amp;nbsp; &amp;nbsp; &amp;nbsp; &amp;nbsp; &amp;nbsp; &amp;nbsp; &amp;nbsp; &amp;nbsp; &amp;nbsp; &amp;nbsp; &amp;nbsp; Value" style="shape=partialRectangle;top=0;left=0;right=0;bottom=0;html=1;align=left;verticalAlign=middle;fillColor=none;spacingLeft=60;spacingRight=4;whiteSpace=wrap;overflow=hidden;rotatable=0;points=[[0,0.5],[1,0.5]];portConstraint=eastwest;dropTarget=0;fontStyle=1;labelPosition=center;verticalLabelPosition=middle;" vertex="1" parent="yuesj6V39DcN7nB38oiK-171">
          <mxGeometry y="26" width="230" height="30" as="geometry" />
        </mxCell>
        <mxCell id="yuesj6V39DcN7nB38oiK-173" value="Key" style="shape=partialRectangle;fontStyle=1;top=0;left=0;bottom=0;html=1;fillColor=none;align=center;verticalAlign=middle;spacingLeft=4;spacingRight=4;whiteSpace=wrap;overflow=hidden;rotatable=0;points=[];portConstraint=eastwest;part=1;" vertex="1" connectable="0" parent="yuesj6V39DcN7nB38oiK-172">
          <mxGeometry width="110" height="30" as="geometry" />
        </mxCell>
        <mxCell id="yuesj6V39DcN7nB38oiK-174" value="&amp;nbsp; &amp;nbsp; &amp;nbsp; &amp;nbsp; &amp;nbsp; &amp;nbsp; &amp;nbsp; &amp;nbsp; &amp;nbsp; &amp;nbsp; &amp;nbsp; &amp;nbsp; UID" style="shape=partialRectangle;top=1;left=0;right=0;bottom=0;html=1;align=left;verticalAlign=middle;fillColor=none;spacingLeft=60;spacingRight=4;whiteSpace=wrap;overflow=hidden;rotatable=0;points=[[0,0.5],[1,0.5]];portConstraint=eastwest;dropTarget=0;fontStyle=1;labelPosition=center;verticalLabelPosition=middle;" vertex="1" parent="yuesj6V39DcN7nB38oiK-171">
          <mxGeometry y="56" width="230" height="30" as="geometry" />
        </mxCell>
        <mxCell id="yuesj6V39DcN7nB38oiK-175" value="ID" style="shape=partialRectangle;fontStyle=1;top=0;left=0;bottom=0;html=1;fillColor=none;align=center;verticalAlign=middle;spacingLeft=4;spacingRight=4;whiteSpace=wrap;overflow=hidden;rotatable=0;points=[];portConstraint=eastwest;part=1;" vertex="1" connectable="0" parent="yuesj6V39DcN7nB38oiK-174">
          <mxGeometry width="110" height="30" as="geometry" />
        </mxCell>
        <mxCell id="yuesj6V39DcN7nB38oiK-176" value="&amp;nbsp; &amp;nbsp; &amp;nbsp; &amp;nbsp; &amp;nbsp; &amp;nbsp; &amp;nbsp; &amp;nbsp; &amp;nbsp; &amp;nbsp; &amp;nbsp; &amp;nbsp;address" style="shape=partialRectangle;top=0;left=0;right=0;bottom=0;html=1;align=left;verticalAlign=middle;fillColor=none;spacingLeft=60;spacingRight=4;whiteSpace=wrap;overflow=hidden;rotatable=0;points=[[0,0.5],[1,0.5]];portConstraint=eastwest;dropTarget=0;fontStyle=1;" vertex="1" parent="yuesj6V39DcN7nB38oiK-171">
          <mxGeometry y="86" width="230" height="30" as="geometry" />
        </mxCell>
        <mxCell id="yuesj6V39DcN7nB38oiK-177" value="service addr" style="shape=partialRectangle;fontStyle=1;top=0;left=0;bottom=0;html=1;fillColor=none;align=center;verticalAlign=middle;spacingLeft=4;spacingRight=4;whiteSpace=wrap;overflow=hidden;rotatable=0;points=[];portConstraint=eastwest;part=1;" vertex="1" connectable="0" parent="yuesj6V39DcN7nB38oiK-176">
          <mxGeometry width="110" height="30" as="geometry" />
        </mxCell>
        <mxCell id="yuesj6V39DcN7nB38oiK-179" value="&amp;nbsp; &amp;nbsp; &amp;nbsp; &amp;nbsp; &amp;nbsp; &amp;nbsp; &amp;nbsp; &amp;nbsp; &amp;nbsp; &amp;nbsp; &amp;nbsp; &amp;nbsp;address" style="shape=partialRectangle;top=0;left=0;right=0;bottom=0;html=1;align=left;verticalAlign=middle;fillColor=none;spacingLeft=60;spacingRight=4;whiteSpace=wrap;overflow=hidden;rotatable=0;points=[[0,0.5],[1,0.5]];portConstraint=eastwest;dropTarget=0;fontStyle=1;" vertex="1" parent="yuesj6V39DcN7nB38oiK-171">
          <mxGeometry y="116" width="230" height="30" as="geometry" />
        </mxCell>
        <mxCell id="yuesj6V39DcN7nB38oiK-180" value="owner" style="shape=partialRectangle;fontStyle=1;top=0;left=0;bottom=0;html=1;fillColor=none;align=center;verticalAlign=middle;spacingLeft=4;spacingRight=4;whiteSpace=wrap;overflow=hidden;rotatable=0;points=[];portConstraint=eastwest;part=1;" vertex="1" connectable="0" parent="yuesj6V39DcN7nB38oiK-179">
          <mxGeometry width="110" height="30" as="geometry" />
        </mxCell>
        <mxCell id="yuesj6V39DcN7nB38oiK-182" value="&amp;nbsp; &amp;nbsp; &amp;nbsp; &amp;nbsp; &amp;nbsp; &amp;nbsp; &amp;nbsp; &amp;nbsp; &amp;nbsp; &amp;nbsp; &amp;nbsp; &amp;nbsp;Coin&amp;lt;SUI&amp;gt;" style="shape=partialRectangle;top=0;left=0;right=0;bottom=0;html=1;align=left;verticalAlign=middle;fillColor=none;spacingLeft=60;spacingRight=4;whiteSpace=wrap;overflow=hidden;rotatable=0;points=[[0,0.5],[1,0.5]];portConstraint=eastwest;dropTarget=0;fontStyle=1;" vertex="1" parent="yuesj6V39DcN7nB38oiK-171">
          <mxGeometry y="146" width="230" height="30" as="geometry" />
        </mxCell>
        <mxCell id="yuesj6V39DcN7nB38oiK-183" value="amount" style="shape=partialRectangle;fontStyle=1;top=0;left=0;bottom=0;html=1;fillColor=none;align=center;verticalAlign=middle;spacingLeft=4;spacingRight=4;whiteSpace=wrap;overflow=hidden;rotatable=0;points=[];portConstraint=eastwest;part=1;" vertex="1" connectable="0" parent="yuesj6V39DcN7nB38oiK-182">
          <mxGeometry width="110" height="30" as="geometry" />
        </mxCell>
        <mxCell id="yuesj6V39DcN7nB38oiK-185" value="" style="edgeStyle=orthogonalEdgeStyle;rounded=0;orthogonalLoop=1;jettySize=auto;html=1;endArrow=none;endFill=0;" edge="1" parent="1" source="yuesj6V39DcN7nB38oiK-45" target="yuesj6V39DcN7nB38oiK-182">
          <mxGeometry relative="1" as="geometry" />
        </mxCell>
      </root>
    </mxGraphModel>
  </diagram>
</mxfile>
